<svg
    xmlns="http://www.w3.org/2000/svg"
    width="1886.000000pt"
    height="342.000000pt"
    viewBox="0 0 1886.000000 342.000000"
    preserveAspectRatio="xMidYMid meet"
  >
    <g
      transform="translate(0.000000,342.000000) scale(0.100000,-0.100000)"
      fill="#FFFFFF"
      stroke="none"
    >
      <path d="M3340 1760 l0 -1070 240 0 240 0 0 1070 0 1070 -240 0 -240 0 0 -1070z" />
      <path d="M8490 1760 l0 -1070 240 0 240 0 0 335 c0 184 3 335 8 334 4 0 147 -150 317 -334 l310 -333 315 -1 315 0 -72 67 c-260 244 -763 728 -761 733 2 4 185 183 408 398 223 215 407 396 408 401 3 7 -100 9 -304 8 l-308 -3 -221 -236 c-121 -129 -264 -282 -317 -340 l-97 -104 -1 608 0 607 -240 0 -240 0 0 -1070z" />
      <path d="M2075 2640 c-377 -38 -704 -267 -866 -605 -77 -161 -93 -239 -93 -440 0 -205 16 -281 99 -451 197 -405 632 -644 1087 -596 178 19 293 60 448 160 116 76 251 231 293 339 54 138 15 272 -103 351 -61 40 -111 55 -189 54 -130 -1 -250 -70 -347 -199 -32 -43 -80 -99 -107 -125 -87 -84 -241 -148 -355 -148 l-51 0 -30 54 c-112 195 -166 449 -142 667 17 163 72 335 144 457 30 49 34 52 73 52 59 0 187 -35 247 -67 69 -38 148 -112 213 -200 104 -140 217 -206 360 -207 74 -1 87 2 150 34 154 79 202 234 123 401 -96 202 -362 402 -599 448 -118 24 -250 31 -355 21z" />
      <path d="M11280 1530 l0 -840 376 0 c288 0 401 4 481 16 420 62 685 267 775 599 30 113 30 326 0 438 -69 253 -248 442 -510 537 -197 72 -365 90 -829 90 l-293 0 0 -840z m807 639 c363 -49 582 -290 583 -642 1 -375 -222 -604 -630 -647 -52 -5 -186 -10 -297 -10 l-203 0 0 655 0 655 234 0 c129 0 270 -5 313 -11z" />
      <path d="M4914 2306 c-479 -78 -766 -412 -741 -861 18 -309 180 -548 460 -680 325 -153 778 -133 1054 47 98 64 183 145 238 228 40 61 75 131 75 151 0 5 -113 9 -251 9 l-252 0 -57 -63 c-73 -79 -141 -114 -255 -129 -156 -21 -302 19 -408 112 -51 46 -103 140 -113 208 l-7 42 690 0 690 0 7 38 c11 67 6 202 -10 280 -63 307 -283 515 -638 603 -105 26 -364 34 -482 15z m328 -337 c79 -17 182 -74 232 -130 45 -50 76 -120 76 -171 l0 -28 -445 0 -445 0 6 28 c13 57 62 149 102 188 46 46 140 99 198 113 56 13 214 13 276 0z" />
      <path d="M7014 2306 c-479 -78 -766 -412 -741 -861 18 -309 180 -548 460 -680 325 -153 778 -133 1054 47 98 64 183 145 238 228 40 61 75 131 75 151 0 5 -113 9 -251 9 l-252 0 -57 -63 c-73 -79 -141 -114 -255 -129 -156 -21 -302 19 -408 112 -51 46 -103 140 -113 208 l-7 42 690 0 690 0 7 38 c11 67 6 202 -10 280 -63 307 -283 515 -638 603 -105 26 -364 34 -482 15z m328 -337 c79 -17 182 -74 232 -130 45 -50 76 -120 76 -171 l0 -28 -445 0 -445 0 6 28 c13 57 62 149 102 188 46 46 140 99 198 113 56 13 214 13 276 0z" />
      <path d="M13800 2018 c-86 -12 -245 -67 -316 -109 -32 -19 -90 -66 -130 -106 -194 -193 -240 -500 -112 -763 43 -90 177 -223 273 -272 138 -70 259 -98 430 -98 61 0 138 5 171 11 288 51 515 229 590 464 83 260 0 548 -203 706 -84 66 -136 94 -238 128 -146 48 -306 62 -465 39z m313 -204 c87 -22 153 -59 217 -120 96 -91 140 -200 140 -344 0 -144 -39 -241 -134 -336 -103 -103 -228 -149 -401 -148 -248 1 -424 125 -481 339 -21 77 -18 231 6 307 46 151 162 257 329 304 67 18 251 17 324 -2z" />
      <path d="M15615 2024 c-270 -40 -467 -168 -566 -369 -54 -110 -72 -202 -66 -340 7 -178 57 -301 170 -421 140 -150 334 -224 587 -224 256 0 456 77 592 228 42 47 98 141 113 190 l6 22 -138 0 -138 -1 -35 -60 c-49 -87 -131 -145 -245 -175 -65 -18 -246 -18 -311 0 -168 44 -288 169 -323 334 -16 75 -14 228 4 295 52 200 205 320 425 334 216 14 391 -66 462 -212 l22 -45 138 0 c99 0 138 3 138 12 0 6 -18 48 -39 93 -75 153 -227 268 -421 315 -83 20 -304 34 -375 24z" />
      <path d="M17175 2021 c-194 -31 -344 -120 -402 -239 -23 -48 -28 -69 -27 -132 1 -95 27 -153 97 -216 86 -77 180 -114 457 -180 266 -63 339 -101 356 -188 9 -52 -26 -117 -83 -155 -63 -42 -130 -54 -266 -49 -105 4 -121 7 -181 37 -72 35 -120 85 -138 144 l-11 37 -135 0 -134 0 7 -37 c26 -146 149 -270 323 -327 119 -39 200 -49 351 -44 115 4 149 10 220 33 205 69 311 198 299 364 -6 81 -31 133 -91 188 -80 74 -171 110 -467 183 -237 59 -318 101 -341 179 -25 83 28 161 136 198 78 28 264 25 329 -5 94 -43 140 -93 160 -174 l6 -28 131 0 131 0 -7 43 c-29 174 -162 302 -366 352 -74 18 -281 28 -354 16z" />
    </g>
  </svg>